<svg xmlns="http://www.w3.org/2000/svg" viewBox="0 0 30 20"><rect width="30" height="20" fill="#de2910"/><g fill="#ffde00"><polygon points="5,3 6,5.5 8.5,5.5 6.5,7 7.3,9.5 5,8 2.7,9.5 3.5,7 1.5,5.5 4,5.5"/><polygon points="10,2 10.3,2.8 11.2,2.8 10.5,3.4 10.8,4.3 10,3.8 9.2,4.3 9.5,3.4 8.8,2.8 9.7,2.8"/><polygon points="12,4 12.3,4.8 13.2,4.8 12.5,5.4 12.8,6.3 12,5.8 11.2,6.3 11.5,5.4 10.8,4.8 11.7,4.8"/><polygon points="12,7 12.3,7.8 13.2,7.8 12.5,8.4 12.8,9.3 12,8.8 11.2,9.3 11.5,8.4 10.8,7.8 11.7,7.8"/><polygon points="10,9 10.3,9.8 11.2,9.8 10.5,10.4 10.8,11.3 10,10.8 9.2,11.3 9.5,10.4 8.8,9.8 9.7,9.8"/></g></svg>
